<?xml version="1.0" standalone="no"?>
<!DOCTYPE svg PUBLIC "-//W3C//DTD SVG 20010904//EN"
 "http://www.w3.org/TR/2001/REC-SVG-20010904/DTD/svg10.dtd">
<svg version="1.0" xmlns="http://www.w3.org/2000/svg"
 width="980.000000pt" height="980.000000pt" viewBox="0 0 980.000000 980.000000"
 preserveAspectRatio="xMidYMid meet">
<metadata>
Created by potrace 1.14, written by Peter Selinger 2001-2017
</metadata>
<g transform="translate(0.000000,980.000000) scale(0.100000,-0.100000)"
fill="#000000" stroke="none">
<path d="M4570 9794 c-19 -2 -87 -9 -150 -15 -384 -35 -857 -149 -1235 -299
-1290 -510 -2308 -1574 -2778 -2905 -446 -1262 -366 -2673 218 -3870 179 -366
402 -709 664 -1020 110 -130 367 -391 507 -514 778 -682 1718 -1080 2747
-1162 196 -15 706 -7 887 15 958 117 1809 491 2540 1116 134 114 432 415 541
545 914 1089 1314 2493 1118 3920 -99 725 -369 1438 -774 2050 -542 819 -1313
1451 -2210 1812 -379 153 -792 258 -1215 309 -127 15 -765 29 -860 18z m810
-289 c1059 -126 1986 -584 2726 -1348 1209 -1246 1624 -3091 1069 -4752 -194
-582 -498 -1118 -897 -1580 -131 -151 -417 -429 -568 -551 -390 -315 -809
-557 -1256 -725 -129 -48 -142 -51 -214 -47 -98 4 -145 32 -184 109 l-26 53 0
734 c0 612 -3 752 -16 839 -35 237 -120 440 -242 575 l-33 37 33 5 c18 3 83
13 143 21 397 58 782 191 1038 358 473 308 738 798 818 1507 8 66 13 224 13
370 0 217 -4 272 -22 373 -60 327 -182 596 -379 839 l-54 67 20 65 c74 239 85
546 30 821 -20 102 -81 308 -99 335 -13 21 -211 19 -305 -4 -254 -60 -535
-191 -833 -387 -58 -38 -111 -69 -118 -69 -7 0 -66 13 -131 30 -601 150 -1302
157 -1902 19 -253 -59 -211 -61 -331 19 -386 255 -780 412 -1036 412 -103 0
-105 -1 -147 -137 -111 -355 -122 -706 -32 -1017 l26 -88 -55 -68 c-151 -186
-267 -411 -335 -646 -113 -390 -85 -1048 65 -1501 98 -295 236 -526 429 -718
312 -311 733 -497 1327 -586 l156 -24 -35 -38 c-113 -125 -192 -310 -239 -554
-3 -17 -23 -29 -87 -53 -213 -83 -459 -106 -632 -61 -222 59 -400 193 -540
407 -32 49 -74 114 -94 144 -48 73 -160 190 -235 247 -159 119 -364 181 -511
154 -76 -14 -109 -38 -113 -80 -6 -61 37 -105 248 -256 148 -105 314 -348 419
-613 106 -265 266 -444 506 -564 253 -128 571 -154 988 -82 l37 7 0 -422 0
-422 -24 -47 c-39 -77 -104 -112 -205 -112 -123 0 -605 212 -931 410 -584 354
-1087 841 -1464 1417 -909 1392 -1012 3190 -268 4678 346 692 858 1287 1489
1728 257 179 630 379 913 490 421 164 884 268 1340 301 129 9 631 -3 760 -19z"/>
</g>
</svg>
