<svg width="879" height="880" viewBox="0 0 879 880" fill="none" xmlns="http://www.w3.org/2000/svg">
<g filter="url(#filter0_d_1_130)">
<circle cx="439.5" cy="439.972" r="254" stroke="#414141" stroke-width="67" shape-rendering="crispEdges"/>
</g>
<circle cx="216" cy="229" r="45" fill="url(#paint0_linear_1_130)"/>
<path d="M185 395C185 419.853 164.853 440 140 440C115.147 440 95 419.853 95 395C95 370.147 115.147 350 140 350C164.853 350 185 370.147 185 395Z" fill="url(#paint1_linear_1_130)"/>
<circle cx="614" cy="197" r="45" fill="url(#paint2_linear_1_130)"/>
<circle cx="171" cy="583" r="45" fill="url(#paint3_linear_1_130)"/>
<path d="M99.936 387.4V386.536H100.248C100.232 386.536 101 386.552 102.552 386.584C103.88 386.6 105.208 386.6 106.536 386.584L108.816 386.536H109.128V387.4V388.264H107.832H106.536V390.904V393.568H109.8H113.04V390.904V388.264H111.744H110.448V387.4V386.536H110.76L113.04 386.584C114.368 386.6 115.696 386.6 117.024 386.584C118.576 386.552 119.344 386.536 119.328 386.536H119.64V387.4V388.264H118.344H117.048V394.768V401.272H118.344H119.64V402.136V403H119.328L117.048 402.952C115.72 402.936 114.392 402.936 113.064 402.952C111.512 402.984 110.744 403 110.76 403H110.448V402.136V401.272H111.744H113.04V398.272V395.296H109.8H106.536V398.272V401.272H107.832H109.128V402.136V403H108.816C108.832 403 108.064 402.984 106.512 402.952C105.184 402.936 103.856 402.936 102.528 402.952L100.248 403H99.936V402.136V401.272H101.232H102.528V394.768V388.264H101.232H99.936V387.4ZM122.097 386.944V386.8H130.185H138.297V386.944L138.561 389.992C138.705 391.992 138.785 393.008 138.801 393.04V393.184H137.937C137.361 393.184 137.073 393.176 137.073 393.16C137.073 392.84 137.033 392.424 136.953 391.912C136.857 391.192 136.721 390.6 136.545 390.136C136.305 389.576 135.897 389.16 135.321 388.888C135.081 388.76 134.761 388.664 134.361 388.6C134.217 388.568 133.809 388.544 133.137 388.528H132.201V394.888V401.272H134.049H135.873V402.136V403H135.489L132.657 402.952C131.009 402.936 129.369 402.936 127.737 402.952L124.905 403H124.521V402.136V401.272H126.369H128.193V394.888V388.528H127.257C126.585 388.544 126.177 388.568 126.033 388.6C125.281 388.744 124.705 389.024 124.305 389.44C124.049 389.696 123.841 390.08 123.681 390.592C123.553 391.056 123.449 391.768 123.369 392.728C123.337 393 123.321 393.144 123.321 393.16C123.321 393.176 123.033 393.184 122.457 393.184H121.593V393.04L121.857 389.992C122.001 387.992 122.081 386.976 122.097 386.944ZM140.741 387.4V386.536H144.101H147.485L147.605 386.608C147.765 386.688 147.901 386.872 148.013 387.16L150.533 393.16L152.909 398.824L155.285 393.16L157.805 387.16C157.917 386.872 158.061 386.688 158.237 386.608L158.357 386.536H161.693H165.053V387.4V388.264H163.757H162.461V394.768V401.272H163.757H165.053V402.136V403H164.765C164.781 403 164.045 402.984 162.557 402.952C161.293 402.936 160.029 402.936 158.765 402.952C157.277 402.984 156.541 403 156.557 403H156.269V402.136V401.272H157.565H158.861V394.864L158.837 388.504C158.757 388.664 157.765 391.032 155.861 395.608C153.877 400.312 152.869 402.68 152.837 402.712C152.757 402.84 152.637 402.928 152.477 402.976C152.317 403.024 152.021 403.032 151.589 403C151.525 403 151.477 402.992 151.445 402.976C151.285 402.928 151.165 402.84 151.085 402.712C151.053 402.68 150.069 400.36 148.133 395.752C146.197 391.112 145.229 388.8 145.229 388.816L145.205 394.984V395.032V401.272H146.501H147.797V402.136V403H147.557C147.573 403 146.989 402.984 145.805 402.952C144.781 402.936 143.757 402.936 142.733 402.952C141.549 402.984 140.965 403 140.981 403H140.741V402.136V401.272H142.037H143.333V394.768V388.264H142.037H140.741V387.4ZM166.944 387.4V386.536H167.256C167.24 386.536 168.008 386.552 169.56 386.584C170.888 386.6 172.312 386.6 173.832 386.584L176.448 386.536H176.784V387.4V388.264H175.176H173.544V394.768V401.272H174.576C175.312 401.272 175.752 401.256 175.896 401.224C176.552 401.144 177.144 400.928 177.672 400.576C178.648 399.904 179.264 398.784 179.52 397.216C179.648 396.512 179.712 396.056 179.712 395.848C179.712 395.832 180 395.824 180.576 395.824H181.44V395.944C181.408 396.024 181.288 397.176 181.08 399.4C180.84 401.688 180.712 402.848 180.696 402.88V403H173.808H166.944V402.136V401.272H168.24H169.536V394.768V388.264H168.24H166.944V387.4Z" fill="#FF5A30"/>
<path d="M196.055 227.795V233.104L211.102 240.451V234.949L201.135 230.449L211.102 225.967V220.465L196.055 227.795ZM230.314 212.977L214.266 248.045H219.803L235.852 212.977H230.314Z" fill="#FF5A30"/>
<g filter="url(#filter1_d_1_130)">
<path d="M597 181.6V180.304H597.54C597.516 180.304 598.848 180.328 601.536 180.376C603.84 180.4 605.832 180.4 607.512 180.376L610.392 180.304H610.788V181.6V182.896H609.348H607.872V191.68V200.428L607.728 200.86C607.512 201.7 607.08 202.444 606.432 203.092C605.256 204.268 603.552 204.988 601.32 205.252C599.928 205.42 598.596 205.444 597.324 205.324C595.044 205.036 593.436 204.328 592.5 203.2C592.164 202.792 591.936 202.312 591.816 201.76C591.672 201.208 591.672 200.62 591.816 199.996C592.104 198.892 592.824 198.16 593.976 197.8C594.168 197.752 594.48 197.728 594.912 197.728C595.344 197.728 595.668 197.752 595.884 197.8C597.012 198.184 597.72 198.916 598.008 199.996C598.152 200.548 598.152 201.136 598.008 201.76C597.864 202.264 597.696 202.624 597.504 202.84C597.408 202.984 597.372 203.056 597.396 203.056C597.54 203.104 597.972 203.152 598.692 203.2C599.124 203.2 599.424 203.188 599.592 203.164C600.888 202.948 601.68 202.168 601.968 200.824C602.016 200.608 602.052 197.56 602.076 191.68V182.896H599.556H597V181.6ZM622.515 179.944C623.523 179.848 624.495 179.884 625.431 180.052C626.751 180.244 627.999 180.724 629.175 181.492C629.319 181.612 629.427 181.66 629.499 181.636C629.619 181.516 629.931 181.24 630.435 180.808C631.059 180.28 631.383 180.004 631.407 179.98C631.479 179.932 631.647 179.908 631.911 179.908C632.199 179.908 632.379 179.932 632.451 179.98C632.571 180.052 632.643 180.22 632.667 180.484C632.691 180.82 632.703 182.068 632.703 184.228C632.703 186.916 632.619 188.32 632.451 188.44C632.355 188.488 632.007 188.512 631.407 188.512C630.807 188.512 630.459 188.488 630.363 188.44C630.219 188.368 630.123 188.116 630.075 187.684C629.931 186.916 629.703 186.208 629.391 185.56C629.103 184.96 628.707 184.432 628.203 183.976C627.171 182.968 625.731 182.428 623.883 182.356C621.915 182.284 620.667 182.932 620.139 184.3C620.019 184.636 619.959 185.02 619.959 185.452C619.959 185.932 620.043 186.352 620.211 186.712C620.571 187.456 621.219 188.008 622.155 188.368C622.323 188.464 623.247 188.68 624.927 189.016C626.655 189.376 627.615 189.592 627.807 189.664C628.863 189.928 629.811 190.372 630.651 190.996C632.379 192.268 633.423 194.008 633.783 196.216C633.879 196.888 633.879 197.728 633.783 198.736C633.639 199.648 633.363 200.524 632.955 201.364C632.475 202.348 631.839 203.14 631.047 203.74C629.943 204.58 628.611 205.108 627.051 205.324C626.451 205.42 625.527 205.432 624.279 205.36C624.159 205.336 624.063 205.324 623.991 205.324C621.927 205.108 620.271 204.592 619.023 203.776C618.879 203.68 618.771 203.644 618.699 203.668C618.579 203.788 618.267 204.064 617.763 204.496C617.139 205.024 616.815 205.3 616.791 205.324C616.719 205.372 616.551 205.396 616.287 205.396C615.999 205.396 615.819 205.372 615.747 205.324C615.627 205.252 615.555 205.084 615.531 204.82C615.507 204.484 615.495 203.248 615.495 201.112C615.495 198.496 615.519 197.152 615.567 197.08C615.591 197.032 615.639 196.972 615.711 196.9C615.831 196.828 616.179 196.792 616.755 196.792C617.379 196.792 617.739 196.816 617.835 196.864C618.003 196.96 618.087 197.212 618.087 197.62C618.159 198.916 618.615 199.984 619.455 200.824C620.079 201.448 620.943 201.94 622.047 202.3C623.463 202.756 624.879 202.912 626.295 202.768C626.487 202.744 626.655 202.72 626.799 202.696C627.471 202.552 628.023 202.264 628.455 201.832C628.935 201.352 629.247 200.704 629.391 199.888C629.583 198.664 629.247 197.62 628.383 196.756C628.023 196.348 627.555 196.06 626.979 195.892C626.883 195.844 625.923 195.616 624.099 195.208C622.371 194.872 621.387 194.656 621.147 194.56C619.371 194.056 617.979 193.108 616.971 191.716C615.939 190.348 615.447 188.812 615.495 187.108C615.567 185.404 616.071 183.94 617.007 182.716C617.895 181.516 619.191 180.688 620.895 180.232C621.471 180.088 622.011 179.992 622.515 179.944Z" fill="#FF5A30"/>
</g>
<g filter="url(#filter2_d_1_130)">
<path d="M146.768 571.944H148.784C149.768 572.016 150.68 572.22 151.52 572.556C152.456 572.868 153.356 573.348 154.22 573.996C154.436 574.164 154.544 574.224 154.544 574.176C154.568 574.176 155.012 573.816 155.876 573.096C156.836 572.328 157.304 571.956 157.28 571.98C157.472 571.86 157.82 571.86 158.324 571.98C158.444 572.052 158.516 572.172 158.54 572.34C158.564 572.58 158.576 574.14 158.576 577.02C158.576 580.212 158.54 581.856 158.468 581.952L158.324 582.024C158.228 582.072 157.844 582.096 157.172 582.096C156.5 582.096 156.116 582.072 156.02 582.024C155.852 581.904 155.756 581.724 155.732 581.484C155.54 579.708 154.904 578.172 153.824 576.876C153.344 576.348 152.888 575.928 152.456 575.616C151.688 575.064 150.884 574.728 150.044 574.608C148.988 574.392 147.692 574.452 146.156 574.788C144.62 575.1 143.384 575.652 142.448 576.444C141.896 576.876 141.488 577.308 141.224 577.74C140.216 579.204 139.712 581.508 139.712 584.652C139.712 587.94 140.276 590.316 141.404 591.78C141.524 591.948 141.668 592.116 141.836 592.284C142.148 592.596 142.352 592.788 142.448 592.86C143.384 593.652 144.62 594.204 146.156 594.516C147.5 594.804 148.688 594.888 149.72 594.768C151.904 594.552 153.596 593.58 154.796 591.852C155.516 590.844 155.912 589.728 155.984 588.504C155.984 588.096 156.068 587.844 156.236 587.748C156.332 587.7 156.68 587.676 157.28 587.676C157.88 587.676 158.228 587.7 158.324 587.748C158.492 587.868 158.576 588.144 158.576 588.576C158.504 589.728 158.24 590.772 157.784 591.708C156.656 594.06 154.724 595.716 151.988 596.676C150.98 597.036 149.912 597.264 148.784 597.36C148.016 597.432 147.044 597.42 145.868 597.324C142.844 596.988 140.324 596.124 138.308 594.732C136.388 593.316 135.02 591.552 134.204 589.44C133.844 588.528 133.568 587.448 133.376 586.2C133.28 585.336 133.28 584.352 133.376 583.248C133.376 583.176 133.376 583.116 133.376 583.068C133.616 581.148 134.216 579.42 135.176 577.884C136.64 575.508 138.86 573.816 141.836 572.808C143.372 572.328 145.016 572.04 146.768 571.944ZM170.242 571.944C171.25 571.848 172.222 571.884 173.158 572.052C174.478 572.244 175.726 572.724 176.902 573.492C177.046 573.612 177.154 573.66 177.226 573.636C177.346 573.516 177.658 573.24 178.162 572.808C178.786 572.28 179.11 572.004 179.134 571.98C179.206 571.932 179.374 571.908 179.638 571.908C179.926 571.908 180.106 571.932 180.178 571.98C180.298 572.052 180.37 572.22 180.394 572.484C180.418 572.82 180.43 574.068 180.43 576.228C180.43 578.916 180.346 580.32 180.178 580.44C180.082 580.488 179.734 580.512 179.134 580.512C178.534 580.512 178.186 580.488 178.09 580.44C177.946 580.368 177.85 580.116 177.802 579.684C177.658 578.916 177.43 578.208 177.118 577.56C176.83 576.96 176.434 576.432 175.93 575.976C174.898 574.968 173.458 574.428 171.61 574.356C169.642 574.284 168.394 574.932 167.866 576.3C167.746 576.636 167.686 577.02 167.686 577.452C167.686 577.932 167.77 578.352 167.938 578.712C168.298 579.456 168.946 580.008 169.882 580.368C170.05 580.464 170.974 580.68 172.654 581.016C174.382 581.376 175.342 581.592 175.534 581.664C176.59 581.928 177.538 582.372 178.378 582.996C180.106 584.268 181.15 586.008 181.51 588.216C181.606 588.888 181.606 589.728 181.51 590.736C181.366 591.648 181.09 592.524 180.682 593.364C180.202 594.348 179.566 595.14 178.774 595.74C177.67 596.58 176.338 597.108 174.778 597.324C174.178 597.42 173.254 597.432 172.006 597.36C171.886 597.336 171.79 597.324 171.718 597.324C169.654 597.108 167.998 596.592 166.75 595.776C166.606 595.68 166.498 595.644 166.426 595.668C166.306 595.788 165.994 596.064 165.49 596.496C164.866 597.024 164.542 597.3 164.518 597.324C164.446 597.372 164.278 597.396 164.014 597.396C163.726 597.396 163.546 597.372 163.474 597.324C163.354 597.252 163.282 597.084 163.258 596.82C163.234 596.484 163.222 595.248 163.222 593.112C163.222 590.496 163.246 589.152 163.294 589.08C163.318 589.032 163.366 588.972 163.438 588.9C163.558 588.828 163.906 588.792 164.482 588.792C165.106 588.792 165.466 588.816 165.562 588.864C165.73 588.96 165.814 589.212 165.814 589.62C165.886 590.916 166.342 591.984 167.182 592.824C167.806 593.448 168.67 593.94 169.774 594.3C171.19 594.756 172.606 594.912 174.022 594.768C174.214 594.744 174.382 594.72 174.526 594.696C175.198 594.552 175.75 594.264 176.182 593.832C176.662 593.352 176.974 592.704 177.118 591.888C177.31 590.664 176.974 589.62 176.11 588.756C175.75 588.348 175.282 588.06 174.706 587.892C174.61 587.844 173.65 587.616 171.826 587.208C170.098 586.872 169.114 586.656 168.874 586.56C167.098 586.056 165.706 585.108 164.698 583.716C163.666 582.348 163.174 580.812 163.222 579.108C163.294 577.404 163.798 575.94 164.734 574.716C165.622 573.516 166.918 572.688 168.622 572.232C169.198 572.088 169.738 571.992 170.242 571.944ZM193.234 571.944C194.242 571.848 195.214 571.884 196.15 572.052C197.47 572.244 198.718 572.724 199.894 573.492C200.038 573.612 200.146 573.66 200.218 573.636C200.338 573.516 200.65 573.24 201.154 572.808C201.778 572.28 202.102 572.004 202.126 571.98C202.198 571.932 202.366 571.908 202.63 571.908C202.918 571.908 203.098 571.932 203.17 571.98C203.29 572.052 203.362 572.22 203.386 572.484C203.41 572.82 203.422 574.068 203.422 576.228C203.422 578.916 203.338 580.32 203.17 580.44C203.074 580.488 202.726 580.512 202.126 580.512C201.526 580.512 201.178 580.488 201.082 580.44C200.938 580.368 200.842 580.116 200.794 579.684C200.65 578.916 200.422 578.208 200.11 577.56C199.822 576.96 199.426 576.432 198.922 575.976C197.89 574.968 196.45 574.428 194.602 574.356C192.634 574.284 191.386 574.932 190.858 576.3C190.738 576.636 190.678 577.02 190.678 577.452C190.678 577.932 190.762 578.352 190.93 578.712C191.29 579.456 191.938 580.008 192.874 580.368C193.042 580.464 193.966 580.68 195.646 581.016C197.374 581.376 198.334 581.592 198.526 581.664C199.582 581.928 200.53 582.372 201.37 582.996C203.098 584.268 204.142 586.008 204.502 588.216C204.598 588.888 204.598 589.728 204.502 590.736C204.358 591.648 204.082 592.524 203.674 593.364C203.194 594.348 202.558 595.14 201.766 595.74C200.662 596.58 199.33 597.108 197.77 597.324C197.17 597.42 196.246 597.432 194.998 597.36C194.878 597.336 194.782 597.324 194.71 597.324C192.646 597.108 190.99 596.592 189.742 595.776C189.598 595.68 189.49 595.644 189.418 595.668C189.298 595.788 188.986 596.064 188.482 596.496C187.858 597.024 187.534 597.3 187.51 597.324C187.438 597.372 187.27 597.396 187.006 597.396C186.718 597.396 186.538 597.372 186.466 597.324C186.346 597.252 186.274 597.084 186.25 596.82C186.226 596.484 186.214 595.248 186.214 593.112C186.214 590.496 186.238 589.152 186.286 589.08C186.31 589.032 186.358 588.972 186.43 588.9C186.55 588.828 186.898 588.792 187.474 588.792C188.098 588.792 188.458 588.816 188.554 588.864C188.722 588.96 188.806 589.212 188.806 589.62C188.878 590.916 189.334 591.984 190.174 592.824C190.798 593.448 191.662 593.94 192.766 594.3C194.182 594.756 195.598 594.912 197.014 594.768C197.206 594.744 197.374 594.72 197.518 594.696C198.19 594.552 198.742 594.264 199.174 593.832C199.654 593.352 199.966 592.704 200.11 591.888C200.302 590.664 199.966 589.62 199.102 588.756C198.742 588.348 198.274 588.06 197.698 587.892C197.602 587.844 196.642 587.616 194.818 587.208C193.09 586.872 192.106 586.656 191.866 586.56C190.09 586.056 188.698 585.108 187.69 583.716C186.658 582.348 186.166 580.812 186.214 579.108C186.286 577.404 186.79 575.94 187.726 574.716C188.614 573.516 189.91 572.688 191.614 572.232C192.19 572.088 192.73 571.992 193.234 571.944Z" fill="#FF5A30"/>
</g>
<defs>
<filter id="filter0_d_1_130" x="0" y="0.47226" width="879" height="879" filterUnits="userSpaceOnUse" color-interpolation-filters="sRGB">
<feFlood flood-opacity="0" result="BackgroundImageFix"/>
<feColorMatrix in="SourceAlpha" type="matrix" values="0 0 0 0 0 0 0 0 0 0 0 0 0 0 0 0 0 0 127 0" result="hardAlpha"/>
<feOffset/>
<feGaussianBlur stdDeviation="76"/>
<feComposite in2="hardAlpha" operator="out"/>
<feColorMatrix type="matrix" values="0 0 0 0 0 0 0 0 0 0.768627 0 0 0 0 0.941176 0 0 0 0.42 0"/>
<feBlend mode="normal" in2="BackgroundImageFix" result="effect1_dropShadow_1_130"/>
<feBlend mode="normal" in="SourceGraphic" in2="effect1_dropShadow_1_130" result="shape"/>
</filter>
<filter id="filter1_d_1_130" x="587.6" y="179.8" width="50.3269" height="33.704" filterUnits="userSpaceOnUse" color-interpolation-filters="sRGB">
<feFlood flood-opacity="0" result="BackgroundImageFix"/>
<feColorMatrix in="SourceAlpha" type="matrix" values="0 0 0 0 0 0 0 0 0 0 0 0 0 0 0 0 0 0 127 0" result="hardAlpha"/>
<feOffset dy="4"/>
<feGaussianBlur stdDeviation="2"/>
<feComposite in2="hardAlpha" operator="out"/>
<feColorMatrix type="matrix" values="0 0 0 0 0 0 0 0 0 0 0 0 0 0 0 0 0 0 0.25 0"/>
<feBlend mode="normal" in2="BackgroundImageFix" result="effect1_dropShadow_1_130"/>
<feBlend mode="normal" in="SourceGraphic" in2="effect1_dropShadow_1_130" result="shape"/>
</filter>
<filter id="filter2_d_1_130" x="129.232" y="571.8" width="79.4141" height="33.668" filterUnits="userSpaceOnUse" color-interpolation-filters="sRGB">
<feFlood flood-opacity="0" result="BackgroundImageFix"/>
<feColorMatrix in="SourceAlpha" type="matrix" values="0 0 0 0 0 0 0 0 0 0 0 0 0 0 0 0 0 0 127 0" result="hardAlpha"/>
<feOffset dy="4"/>
<feGaussianBlur stdDeviation="2"/>
<feComposite in2="hardAlpha" operator="out"/>
<feColorMatrix type="matrix" values="0 0 0 0 0 0 0 0 0 0 0 0 0 0 0 0 0 0 0.25 0"/>
<feBlend mode="normal" in2="BackgroundImageFix" result="effect1_dropShadow_1_130"/>
<feBlend mode="normal" in="SourceGraphic" in2="effect1_dropShadow_1_130" result="shape"/>
</filter>
<linearGradient id="paint0_linear_1_130" x1="171" y1="184" x2="267.755" y2="267.157" gradientUnits="userSpaceOnUse">
<stop stop-color="#414141"/>
<stop offset="1" stop-color="#2D2D2D"/>
</linearGradient>
<linearGradient id="paint1_linear_1_130" x1="95" y1="350" x2="191.755" y2="433.157" gradientUnits="userSpaceOnUse">
<stop stop-color="#414141"/>
<stop offset="1" stop-color="#2D2D2D"/>
</linearGradient>
<linearGradient id="paint2_linear_1_130" x1="569" y1="152" x2="665.755" y2="235.157" gradientUnits="userSpaceOnUse">
<stop stop-color="#414141"/>
<stop offset="1" stop-color="#2D2D2D"/>
</linearGradient>
<linearGradient id="paint3_linear_1_130" x1="126" y1="538" x2="222.755" y2="621.157" gradientUnits="userSpaceOnUse">
<stop stop-color="#414141"/>
<stop offset="1" stop-color="#2D2D2D"/>
</linearGradient>
</defs>
</svg>
