<svg width="879" height="880" viewBox="0 0 879 880" fill="none" xmlns="http://www.w3.org/2000/svg">
<g filter="url(#filter0_d_0_3)">
<circle cx="439.5" cy="439.972" r="254" stroke="#414141" stroke-width="67" shape-rendering="crispEdges"/>
</g>
<path d="M695.43 353.818C695.434 353.818 695.438 353.818 695.442 353.818C695.885 353.828 696.178 353.993 696.175 354.151C696.17 354.389 695.867 354.779 695.419 355.008C695.303 355.079 695.188 355.112 695.084 355.112C694.854 355.112 694.681 354.948 694.686 354.674C694.695 354.203 695.064 353.818 695.43 353.818ZM425.202 369.792C425.5 369.87 425.798 369.955 426.086 370.044H426.084C426.697 371.041 427.358 372.007 428.069 372.941C427.106 371.873 426.15 370.824 425.199 369.792H425.202ZM704.093 438.103C704.101 438.103 704.109 438.104 704.117 438.104C704.413 438.11 704.834 443.197 705.086 449.39C705.586 465.814 705.329 479.368 704.591 479.368H704.59C703.259 479.339 698.641 477.255 698.138 476.451C697.203 475.081 697.551 472.312 698.754 471.307C699.429 470.767 699.906 469.032 699.944 467.049C699.978 465.225 700.746 459.847 701.651 455.027C702.711 449.814 703.245 445.066 702.987 443.077C702.61 439.761 703.003 438.103 704.093 438.103ZM395.967 498.018C395.944 498.174 395.919 498.327 395.892 498.476C395.821 498.82 395.748 499.129 395.665 499.409L395.442 498.808H395.44C395.619 498.542 395.794 498.278 395.965 498.018H395.967ZM449.012 484.729C449.718 484.729 450.791 485.787 453.384 488.627C456.642 492.269 457.431 493.555 456.75 494.334C456.295 494.959 456.108 497.017 456.212 499.32C456.52 503.661 455.433 505.938 453.055 505.938C452.734 505.938 452.39 505.897 452.022 505.813C451.668 505.733 451.341 505.691 451.029 505.691C449.975 505.691 449.089 506.173 447.927 507.311C446.406 508.809 445.476 509.159 442.373 509.159C441.941 509.159 441.466 509.153 440.941 509.141C440.697 509.136 440.456 509.133 440.218 509.133C436.924 509.133 434.146 509.66 430.256 511.129L424.523 513.224L421.747 511.419C419.793 510.163 418.036 509.588 415.426 509.588C413.939 509.588 412.176 509.774 409.941 510.129C408.284 510.395 404.254 510.728 399.96 510.979L399.458 509.626H399.456C402.159 509.38 405.531 508.911 409.83 508.222C420.436 506.471 437.208 503.268 439.959 502.456C441 502.161 441.234 501.531 440.964 500.177C440.694 498.822 441.004 498.036 442.502 497.037C444.523 495.732 448.362 488.28 447.72 487.076C447.506 486.674 447.744 485.807 448.273 485.184C448.51 484.896 448.732 484.729 449.012 484.729ZM368.566 311C368.176 311 367.951 311.345 367.937 312.061C367.925 312.695 367.395 313.318 366.8 313.543C365.459 314.069 362.691 319.641 363.109 320.999C363.253 321.383 363.158 321.612 362.872 321.612C362.74 321.612 362.568 321.563 362.361 321.459C362.194 321.387 362.014 321.354 361.835 321.354C361.386 321.354 360.943 321.563 360.726 321.899C360.115 322.917 356.832 324.432 355.131 324.474C354.39 324.537 354.081 325.244 354.202 326.675C354.251 327.941 354.087 328.887 353.793 328.887H353.79C353.783 328.887 353.777 328.887 353.77 328.887C351.089 328.887 342.995 340.561 342.921 344.437C342.914 344.82 342.853 345.018 342.72 345.018C342.551 345.018 342.263 344.694 341.82 344.017C341.438 343.424 341.199 343.1 341.072 343.099H341.071C340.89 343.1 340.941 343.771 341.13 345.271C341.324 346.782 341.394 350.83 341.256 354.239C341.149 359.869 341.283 360.586 343.022 362.449C344.196 363.821 344.904 364.319 346.355 364.352H346.353C346.16 365.496 346.304 366.722 346.785 368.03C346.885 368.859 348.573 371.762 351.847 376.741C353.866 381.078 354.963 383.247 355.137 383.247C355.146 383.247 355.153 383.24 355.157 383.226C355.542 383.727 356.066 384.143 356.729 384.473L361.638 386.366C362.376 386.791 362.898 387.32 363.206 387.953C363.585 388.713 363.775 389.781 363.777 391.158C363.223 397.493 363.075 401.102 363.332 401.987C363.566 404.28 364.14 405.693 365.055 406.228C365.237 406.368 365.466 406.439 365.742 406.439C366.896 406.439 368.867 405.203 371.653 402.73C373.696 406.015 375.269 407.966 376.372 408.582C376.862 408.903 377.412 409.063 378.02 409.063C378.704 409.063 379.463 408.86 380.296 408.454H380.298C380.333 408.475 380.367 408.497 380.4 408.521H380.399C380.052 410.18 382.166 412.706 386.74 416.097C390.436 418.707 393.691 420.213 396.506 420.615C396.935 420.677 397.363 420.708 397.79 420.708C399.464 420.708 401.115 420.229 402.742 419.271C403.673 418.73 404.671 417.974 405.736 417.002L410.081 412.566L420.094 420.616H420.092C420.941 425.035 422.482 434.909 422.768 438.293C422.82 439.405 423.588 441.802 424.441 443.645L426.003 447.012L424.327 453.481C423.447 457.031 422.769 461.539 422.807 463.444C422.919 465.35 422.587 467.247 422.059 467.791C421.531 468.335 421.143 469.278 421.13 469.992C421.116 470.706 419.988 471.712 418.721 472.24C411.955 475.092 408.926 476.111 406.993 476.111C406.882 476.111 406.774 476.108 406.669 476.101C406.641 476.101 406.611 476.101 406.582 476.101C405.394 476.101 403.527 476.603 402.434 477.199C401.361 477.783 399.071 478.195 397.321 478.195C397.243 478.195 397.166 478.194 397.091 478.193C396.92 478.189 396.737 478.187 396.545 478.187C395.678 478.187 394.617 478.224 393.555 478.281C391.932 478.067 390.049 477.96 387.908 477.96C386.484 477.96 384.946 478.007 383.293 478.102C380.211 478.27 376.614 478.597 372.501 479.084L347.815 482.285C345.831 482.551 340.046 482.952 330.459 483.488C327.079 483.618 324.206 485.947 321.841 490.476C321.835 490.488 321.83 490.5 321.824 490.512L321.099 489.94L280.874 491.076L268.948 405.018L268.91 404.747L255.136 416.39C255.011 416.083 254.886 415.864 254.758 415.735C254.334 415.26 254.061 414.998 253.83 414.998C253.509 414.998 253.27 415.502 252.819 416.644C252.533 417.421 252.294 417.998 252.154 418.911L251 419.886C252.316 430.15 253.55 439.628 254.7 448.322C256.081 459.938 258.088 476.264 260.931 499.41C264.761 530.698 265.41 534.668 267.079 536.342C268.646 541.947 270.574 545.939 272.865 548.319C276.027 552.08 281.283 554.398 288.635 555.273C292.129 555.758 296.886 556 302.904 556C305.509 556 308.35 555.955 311.427 555.864C332.589 555.159 352.694 554.202 371.743 552.995C381.541 552.362 388.938 551.721 393.934 551.072H393.936C394.769 551.111 395.728 551.129 396.861 551.129C400.079 551.129 404.704 550.979 411.832 550.711C439.284 549.646 478.616 545.984 481.902 544.311C483.77 543.241 489.366 536.699 490.148 534.495C490.612 533.394 490.953 531.022 490.986 529.277C491.066 525.09 495.007 518.469 497.375 518.469C497.385 518.469 497.394 518.469 497.403 518.469C499.767 518.6 516.951 520.88 542.835 524.541C566.315 527.866 589.234 530.792 606.043 532.674H606.038C618.246 535.051 629.964 536.24 641.194 536.24C641.704 536.24 642.213 536.237 642.721 536.232L640.894 525.261H640.898C644.764 525.597 654.757 526.163 665.908 526.599C675.736 527.002 682.991 527.225 689.638 527.225C699.881 527.225 708.682 526.695 723.234 525.474C734.121 524.522 736.571 524.02 736.592 522.91C736.598 522.593 737.495 522.057 738.684 521.766C741.803 521.041 753.018 514.542 753.037 513.512C753.048 512.956 752.814 509.698 752.437 506.2C752.134 502.702 751.597 495.947 751.244 491.179C750.765 485.218 750.034 480.918 748.765 477.638C747.077 473.079 747.088 472.524 748.005 467.07C749.178 459.796 748.709 457.247 745.661 454.245C743.121 451.73 741.737 446.702 741.854 440.595C741.885 438.93 740.166 432.149 738.004 425.279C735.841 418.488 733.618 410.982 733.071 408.59C732.525 406.198 731.477 403.001 730.768 401.399C730.058 399.876 728.985 394.061 728.352 388.494L727.211 378.473L729.214 374.232C730.293 371.955 731.685 368.733 732.16 367.077C733.658 362.191 739.584 357.72 747.318 355.429C752.448 353.955 754.324 352.489 755.42 349.26C755.894 347.684 757.484 345.735 759.584 344.194C761.383 342.885 763.567 340.791 764.404 339.54L766 337.274L763.026 334.273C758.058 329.276 751.144 326.909 741.595 326.909C739.987 326.909 738.304 326.976 736.543 327.109C727.212 327.857 723.628 329.682 717.281 336.842C713.264 341.38 711.919 342.652 710.689 342.652C710.485 342.652 710.284 342.616 710.074 342.555C709.927 342.512 709.754 342.492 709.559 342.492C706.636 342.492 698.721 347.097 697.143 349.889C696.455 351.064 694.5 352.766 692.633 353.757C689.643 355.437 684.419 361.907 683.242 365.452C683.007 366.16 684.728 368.975 687.399 372.365L691.949 378.098L691.113 383.157C690.617 385.923 689.716 390.504 688.998 393.266C687.882 397.525 687.424 398.309 685.562 398.982C683.85 399.579 682.711 401.141 680.095 406.558C677.564 411.664 675.456 417.291 674.582 420.965H674.577C673.77 422.768 672.976 425.047 672.194 427.803C669.645 436.506 666.81 450.088 663.689 468.551H663.684C663.415 468.589 663.111 468.608 662.78 468.608C660.036 468.608 655.442 467.332 653.533 465.795C652.146 464.813 650.389 463.902 649.576 463.884C648.763 463.866 646.712 462.869 644.885 461.719C643.205 460.629 641.461 459.911 640.463 459.911C640.333 459.911 640.216 459.923 640.113 459.948C640.038 459.968 639.948 459.978 639.845 459.978C638.822 459.978 636.465 459.009 633.874 457.511C632.235 456.537 630.509 455.683 629.224 455.174H629.22L627.266 443.44L627.236 443.26C619.459 441.172 613.151 439.92 608.312 439.506C606.188 439.315 604.17 439.219 602.257 439.219C601.774 439.219 601.298 439.225 600.829 439.237C591.998 439.91 585.979 440.246 582.772 440.246C581.783 440.246 581.061 440.214 580.607 440.15C575.495 439.925 570.659 439.089 566.101 437.642C560.463 435.896 553.839 432.723 546.23 428.123C542.531 425.897 538.506 423.274 534.154 420.254L522.642 411.853H522.639C521.272 409.719 519.697 406.954 518.569 404.689C514.722 396.989 506.544 387.686 500.767 384.307C498.353 382.905 494.407 380.439 492 378.72C483.242 372.657 473.581 367.448 466.674 365.155C462.232 363.65 460.486 363.095 457.792 363.095C456.388 363.095 454.725 363.246 452.287 363.491C448.287 363.88 443.84 364.417 442.58 364.627C442.013 364.723 441.568 364.78 441.209 364.78C440.253 364.78 439.909 364.374 439.501 363.211C439.151 362.172 437.636 360.156 436.109 358.853C433.056 356.089 431.283 352.083 430.224 345.555C429.422 341.094 426.435 334.841 422.539 329.757C421.459 328.226 420.377 326.774 420.163 326.373C419.948 326.051 418.27 324.824 416.37 323.672C414.469 322.52 412.353 321.045 411.701 320.317C411.123 319.59 410.099 319.013 409.508 319C408.917 318.987 408.481 318.581 408.49 318.105C408.496 317.751 408.256 317.524 407.948 317.524C407.842 317.524 407.727 317.551 407.612 317.61C407.563 317.623 407.508 317.63 407.447 317.63C406.847 317.63 405.665 316.995 404.61 316.037C403.378 314.866 402.346 314.384 400.887 314.384C400.625 314.384 400.349 314.4 400.056 314.429C399.658 314.488 399.278 314.515 398.938 314.515C398.075 314.515 397.47 314.34 397.476 314.056C397.489 313.341 396.364 312.864 395.319 312.864C394.741 312.864 394.188 313.01 393.866 313.342C393.616 313.599 393.369 313.732 393.101 313.732C392.802 313.732 392.477 313.567 392.094 313.224C391.556 312.689 389.507 312.445 385.908 312.445C385.137 312.445 384.296 312.456 383.383 312.478C373.394 312.815 373.544 312.739 372.933 313.757C372.814 313.927 372.669 314.012 372.495 314.012C372.108 314.012 371.578 313.595 370.881 312.76C369.891 311.607 369.083 311 368.566 311Z" fill="#393737"/>
<circle cx="216" cy="229" r="45" fill="url(#paint0_linear_0_3)"/>
<path d="M185 395C185 419.853 164.853 440 140 440C115.147 440 95 419.853 95 395C95 370.147 115.147 350 140 350C164.853 350 185 370.147 185 395Z" fill="url(#paint1_linear_0_3)"/>
<circle cx="614" cy="197" r="45" fill="url(#paint2_linear_0_3)"/>
<circle cx="171" cy="583" r="45" fill="url(#paint3_linear_0_3)"/>
<path d="M99.936 387.4V386.536H100.248C100.232 386.536 101 386.552 102.552 386.584C103.88 386.6 105.208 386.6 106.536 386.584L108.816 386.536H109.128V387.4V388.264H107.832H106.536V390.904V393.568H109.8H113.04V390.904V388.264H111.744H110.448V387.4V386.536H110.76L113.04 386.584C114.368 386.6 115.696 386.6 117.024 386.584C118.576 386.552 119.344 386.536 119.328 386.536H119.64V387.4V388.264H118.344H117.048V394.768V401.272H118.344H119.64V402.136V403H119.328L117.048 402.952C115.72 402.936 114.392 402.936 113.064 402.952C111.512 402.984 110.744 403 110.76 403H110.448V402.136V401.272H111.744H113.04V398.272V395.296H109.8H106.536V398.272V401.272H107.832H109.128V402.136V403H108.816C108.832 403 108.064 402.984 106.512 402.952C105.184 402.936 103.856 402.936 102.528 402.952L100.248 403H99.936V402.136V401.272H101.232H102.528V394.768V388.264H101.232H99.936V387.4ZM122.097 386.944V386.8H130.185H138.297V386.944L138.561 389.992C138.705 391.992 138.785 393.008 138.801 393.04V393.184H137.937C137.361 393.184 137.073 393.176 137.073 393.16C137.073 392.84 137.033 392.424 136.953 391.912C136.857 391.192 136.721 390.6 136.545 390.136C136.305 389.576 135.897 389.16 135.321 388.888C135.081 388.76 134.761 388.664 134.361 388.6C134.217 388.568 133.809 388.544 133.137 388.528H132.201V394.888V401.272H134.049H135.873V402.136V403H135.489L132.657 402.952C131.009 402.936 129.369 402.936 127.737 402.952L124.905 403H124.521V402.136V401.272H126.369H128.193V394.888V388.528H127.257C126.585 388.544 126.177 388.568 126.033 388.6C125.281 388.744 124.705 389.024 124.305 389.44C124.049 389.696 123.841 390.08 123.681 390.592C123.553 391.056 123.449 391.768 123.369 392.728C123.337 393 123.321 393.144 123.321 393.16C123.321 393.176 123.033 393.184 122.457 393.184H121.593V393.04L121.857 389.992C122.001 387.992 122.081 386.976 122.097 386.944ZM140.741 387.4V386.536H144.101H147.485L147.605 386.608C147.765 386.688 147.901 386.872 148.013 387.16L150.533 393.16L152.909 398.824L155.285 393.16L157.805 387.16C157.917 386.872 158.061 386.688 158.237 386.608L158.357 386.536H161.693H165.053V387.4V388.264H163.757H162.461V394.768V401.272H163.757H165.053V402.136V403H164.765C164.781 403 164.045 402.984 162.557 402.952C161.293 402.936 160.029 402.936 158.765 402.952C157.277 402.984 156.541 403 156.557 403H156.269V402.136V401.272H157.565H158.861V394.864L158.837 388.504C158.757 388.664 157.765 391.032 155.861 395.608C153.877 400.312 152.869 402.68 152.837 402.712C152.757 402.84 152.637 402.928 152.477 402.976C152.317 403.024 152.021 403.032 151.589 403C151.525 403 151.477 402.992 151.445 402.976C151.285 402.928 151.165 402.84 151.085 402.712C151.053 402.68 150.069 400.36 148.133 395.752C146.197 391.112 145.229 388.8 145.229 388.816L145.205 394.984V395.032V401.272H146.501H147.797V402.136V403H147.557C147.573 403 146.989 402.984 145.805 402.952C144.781 402.936 143.757 402.936 142.733 402.952C141.549 402.984 140.965 403 140.981 403H140.741V402.136V401.272H142.037H143.333V394.768V388.264H142.037H140.741V387.4ZM166.944 387.4V386.536H167.256C167.24 386.536 168.008 386.552 169.56 386.584C170.888 386.6 172.312 386.6 173.832 386.584L176.448 386.536H176.784V387.4V388.264H175.176H173.544V394.768V401.272H174.576C175.312 401.272 175.752 401.256 175.896 401.224C176.552 401.144 177.144 400.928 177.672 400.576C178.648 399.904 179.264 398.784 179.52 397.216C179.648 396.512 179.712 396.056 179.712 395.848C179.712 395.832 180 395.824 180.576 395.824H181.44V395.944C181.408 396.024 181.288 397.176 181.08 399.4C180.84 401.688 180.712 402.848 180.696 402.88V403H173.808H166.944V402.136V401.272H168.24H169.536V394.768V388.264H168.24H166.944V387.4Z" fill="#FF5A30"/>
<path d="M196.055 227.795V233.104L211.102 240.451V234.949L201.135 230.449L211.102 225.967V220.465L196.055 227.795ZM230.314 212.977L214.266 248.045H219.803L235.852 212.977H230.314Z" fill="#FF5A30"/>
<g filter="url(#filter1_d_0_3)">
<path d="M596.184 182.6V181.304H596.724C596.7 181.304 598.032 181.328 600.72 181.376C603.024 181.4 605.016 181.4 606.696 181.376L609.576 181.304H609.972V182.6V183.896H608.532H607.056V192.68V201.428L606.912 201.86C606.696 202.7 606.264 203.444 605.616 204.092C604.44 205.268 602.736 205.988 600.504 206.252C599.112 206.42 597.78 206.444 596.508 206.324C594.228 206.036 592.62 205.328 591.684 204.2C591.348 203.792 591.12 203.312 591 202.76C590.856 202.208 590.856 201.62 591 200.996C591.288 199.892 592.008 199.16 593.16 198.8C593.352 198.752 593.664 198.728 594.096 198.728C594.528 198.728 594.852 198.752 595.068 198.8C596.196 199.184 596.904 199.916 597.192 200.996C597.336 201.548 597.336 202.136 597.192 202.76C597.048 203.264 596.88 203.624 596.688 203.84C596.592 203.984 596.556 204.056 596.58 204.056C596.724 204.104 597.156 204.152 597.876 204.2C598.308 204.2 598.608 204.188 598.776 204.164C600.072 203.948 600.864 203.168 601.152 201.824C601.2 201.608 601.236 198.56 601.26 192.68V183.896H598.74H596.184V182.6ZM621.699 180.944C622.707 180.848 623.679 180.884 624.615 181.052C625.935 181.244 627.183 181.724 628.359 182.492C628.503 182.612 628.611 182.66 628.683 182.636C628.803 182.516 629.115 182.24 629.619 181.808C630.243 181.28 630.567 181.004 630.591 180.98C630.663 180.932 630.831 180.908 631.095 180.908C631.383 180.908 631.563 180.932 631.635 180.98C631.755 181.052 631.827 181.22 631.851 181.484C631.875 181.82 631.887 183.068 631.887 185.228C631.887 187.916 631.803 189.32 631.635 189.44C631.539 189.488 631.191 189.512 630.591 189.512C629.991 189.512 629.643 189.488 629.547 189.44C629.403 189.368 629.307 189.116 629.259 188.684C629.115 187.916 628.887 187.208 628.575 186.56C628.287 185.96 627.891 185.432 627.387 184.976C626.355 183.968 624.915 183.428 623.067 183.356C621.099 183.284 619.851 183.932 619.323 185.3C619.203 185.636 619.143 186.02 619.143 186.452C619.143 186.932 619.227 187.352 619.395 187.712C619.755 188.456 620.403 189.008 621.339 189.368C621.507 189.464 622.431 189.68 624.111 190.016C625.839 190.376 626.799 190.592 626.991 190.664C628.047 190.928 628.995 191.372 629.835 191.996C631.563 193.268 632.607 195.008 632.967 197.216C633.063 197.888 633.063 198.728 632.967 199.736C632.823 200.648 632.547 201.524 632.139 202.364C631.659 203.348 631.023 204.14 630.231 204.74C629.127 205.58 627.795 206.108 626.235 206.324C625.635 206.42 624.711 206.432 623.463 206.36C623.343 206.336 623.247 206.324 623.175 206.324C621.111 206.108 619.455 205.592 618.207 204.776C618.063 204.68 617.955 204.644 617.883 204.668C617.763 204.788 617.451 205.064 616.947 205.496C616.323 206.024 615.999 206.3 615.975 206.324C615.903 206.372 615.735 206.396 615.471 206.396C615.183 206.396 615.003 206.372 614.931 206.324C614.811 206.252 614.739 206.084 614.715 205.82C614.691 205.484 614.679 204.248 614.679 202.112C614.679 199.496 614.703 198.152 614.751 198.08C614.775 198.032 614.823 197.972 614.895 197.9C615.015 197.828 615.363 197.792 615.939 197.792C616.563 197.792 616.923 197.816 617.019 197.864C617.187 197.96 617.271 198.212 617.271 198.62C617.343 199.916 617.799 200.984 618.639 201.824C619.263 202.448 620.127 202.94 621.231 203.3C622.647 203.756 624.063 203.912 625.479 203.768C625.671 203.744 625.839 203.72 625.983 203.696C626.655 203.552 627.207 203.264 627.639 202.832C628.119 202.352 628.431 201.704 628.575 200.888C628.767 199.664 628.431 198.62 627.567 197.756C627.207 197.348 626.739 197.06 626.163 196.892C626.067 196.844 625.107 196.616 623.283 196.208C621.555 195.872 620.571 195.656 620.331 195.56C618.555 195.056 617.163 194.108 616.155 192.716C615.123 191.348 614.631 189.812 614.679 188.108C614.751 186.404 615.255 184.94 616.191 183.716C617.079 182.516 618.375 181.688 620.079 181.232C620.655 181.088 621.195 180.992 621.699 180.944Z" fill="#FF5A30"/>
</g>
<g filter="url(#filter2_d_0_3)">
<path d="M146.768 571.944H148.784C149.768 572.016 150.68 572.22 151.52 572.556C152.456 572.868 153.356 573.348 154.22 573.996C154.436 574.164 154.544 574.224 154.544 574.176C154.568 574.176 155.012 573.816 155.876 573.096C156.836 572.328 157.304 571.956 157.28 571.98C157.472 571.86 157.82 571.86 158.324 571.98C158.444 572.052 158.516 572.172 158.54 572.34C158.564 572.58 158.576 574.14 158.576 577.02C158.576 580.212 158.54 581.856 158.468 581.952L158.324 582.024C158.228 582.072 157.844 582.096 157.172 582.096C156.5 582.096 156.116 582.072 156.02 582.024C155.852 581.904 155.756 581.724 155.732 581.484C155.54 579.708 154.904 578.172 153.824 576.876C153.344 576.348 152.888 575.928 152.456 575.616C151.688 575.064 150.884 574.728 150.044 574.608C148.988 574.392 147.692 574.452 146.156 574.788C144.62 575.1 143.384 575.652 142.448 576.444C141.896 576.876 141.488 577.308 141.224 577.74C140.216 579.204 139.712 581.508 139.712 584.652C139.712 587.94 140.276 590.316 141.404 591.78C141.524 591.948 141.668 592.116 141.836 592.284C142.148 592.596 142.352 592.788 142.448 592.86C143.384 593.652 144.62 594.204 146.156 594.516C147.5 594.804 148.688 594.888 149.72 594.768C151.904 594.552 153.596 593.58 154.796 591.852C155.516 590.844 155.912 589.728 155.984 588.504C155.984 588.096 156.068 587.844 156.236 587.748C156.332 587.7 156.68 587.676 157.28 587.676C157.88 587.676 158.228 587.7 158.324 587.748C158.492 587.868 158.576 588.144 158.576 588.576C158.504 589.728 158.24 590.772 157.784 591.708C156.656 594.06 154.724 595.716 151.988 596.676C150.98 597.036 149.912 597.264 148.784 597.36C148.016 597.432 147.044 597.42 145.868 597.324C142.844 596.988 140.324 596.124 138.308 594.732C136.388 593.316 135.02 591.552 134.204 589.44C133.844 588.528 133.568 587.448 133.376 586.2C133.28 585.336 133.28 584.352 133.376 583.248C133.376 583.176 133.376 583.116 133.376 583.068C133.616 581.148 134.216 579.42 135.176 577.884C136.64 575.508 138.86 573.816 141.836 572.808C143.372 572.328 145.016 572.04 146.768 571.944ZM170.242 571.944C171.25 571.848 172.222 571.884 173.158 572.052C174.478 572.244 175.726 572.724 176.902 573.492C177.046 573.612 177.154 573.66 177.226 573.636C177.346 573.516 177.658 573.24 178.162 572.808C178.786 572.28 179.11 572.004 179.134 571.98C179.206 571.932 179.374 571.908 179.638 571.908C179.926 571.908 180.106 571.932 180.178 571.98C180.298 572.052 180.37 572.22 180.394 572.484C180.418 572.82 180.43 574.068 180.43 576.228C180.43 578.916 180.346 580.32 180.178 580.44C180.082 580.488 179.734 580.512 179.134 580.512C178.534 580.512 178.186 580.488 178.09 580.44C177.946 580.368 177.85 580.116 177.802 579.684C177.658 578.916 177.43 578.208 177.118 577.56C176.83 576.96 176.434 576.432 175.93 575.976C174.898 574.968 173.458 574.428 171.61 574.356C169.642 574.284 168.394 574.932 167.866 576.3C167.746 576.636 167.686 577.02 167.686 577.452C167.686 577.932 167.77 578.352 167.938 578.712C168.298 579.456 168.946 580.008 169.882 580.368C170.05 580.464 170.974 580.68 172.654 581.016C174.382 581.376 175.342 581.592 175.534 581.664C176.59 581.928 177.538 582.372 178.378 582.996C180.106 584.268 181.15 586.008 181.51 588.216C181.606 588.888 181.606 589.728 181.51 590.736C181.366 591.648 181.09 592.524 180.682 593.364C180.202 594.348 179.566 595.14 178.774 595.74C177.67 596.58 176.338 597.108 174.778 597.324C174.178 597.42 173.254 597.432 172.006 597.36C171.886 597.336 171.79 597.324 171.718 597.324C169.654 597.108 167.998 596.592 166.75 595.776C166.606 595.68 166.498 595.644 166.426 595.668C166.306 595.788 165.994 596.064 165.49 596.496C164.866 597.024 164.542 597.3 164.518 597.324C164.446 597.372 164.278 597.396 164.014 597.396C163.726 597.396 163.546 597.372 163.474 597.324C163.354 597.252 163.282 597.084 163.258 596.82C163.234 596.484 163.222 595.248 163.222 593.112C163.222 590.496 163.246 589.152 163.294 589.08C163.318 589.032 163.366 588.972 163.438 588.9C163.558 588.828 163.906 588.792 164.482 588.792C165.106 588.792 165.466 588.816 165.562 588.864C165.73 588.96 165.814 589.212 165.814 589.62C165.886 590.916 166.342 591.984 167.182 592.824C167.806 593.448 168.67 593.94 169.774 594.3C171.19 594.756 172.606 594.912 174.022 594.768C174.214 594.744 174.382 594.72 174.526 594.696C175.198 594.552 175.75 594.264 176.182 593.832C176.662 593.352 176.974 592.704 177.118 591.888C177.31 590.664 176.974 589.62 176.11 588.756C175.75 588.348 175.282 588.06 174.706 587.892C174.61 587.844 173.65 587.616 171.826 587.208C170.098 586.872 169.114 586.656 168.874 586.56C167.098 586.056 165.706 585.108 164.698 583.716C163.666 582.348 163.174 580.812 163.222 579.108C163.294 577.404 163.798 575.94 164.734 574.716C165.622 573.516 166.918 572.688 168.622 572.232C169.198 572.088 169.738 571.992 170.242 571.944ZM193.234 571.944C194.242 571.848 195.214 571.884 196.15 572.052C197.47 572.244 198.718 572.724 199.894 573.492C200.038 573.612 200.146 573.66 200.218 573.636C200.338 573.516 200.65 573.24 201.154 572.808C201.778 572.28 202.102 572.004 202.126 571.98C202.198 571.932 202.366 571.908 202.63 571.908C202.918 571.908 203.098 571.932 203.17 571.98C203.29 572.052 203.362 572.22 203.386 572.484C203.41 572.82 203.422 574.068 203.422 576.228C203.422 578.916 203.338 580.32 203.17 580.44C203.074 580.488 202.726 580.512 202.126 580.512C201.526 580.512 201.178 580.488 201.082 580.44C200.938 580.368 200.842 580.116 200.794 579.684C200.65 578.916 200.422 578.208 200.11 577.56C199.822 576.96 199.426 576.432 198.922 575.976C197.89 574.968 196.45 574.428 194.602 574.356C192.634 574.284 191.386 574.932 190.858 576.3C190.738 576.636 190.678 577.02 190.678 577.452C190.678 577.932 190.762 578.352 190.93 578.712C191.29 579.456 191.938 580.008 192.874 580.368C193.042 580.464 193.966 580.68 195.646 581.016C197.374 581.376 198.334 581.592 198.526 581.664C199.582 581.928 200.53 582.372 201.37 582.996C203.098 584.268 204.142 586.008 204.502 588.216C204.598 588.888 204.598 589.728 204.502 590.736C204.358 591.648 204.082 592.524 203.674 593.364C203.194 594.348 202.558 595.14 201.766 595.74C200.662 596.58 199.33 597.108 197.77 597.324C197.17 597.42 196.246 597.432 194.998 597.36C194.878 597.336 194.782 597.324 194.71 597.324C192.646 597.108 190.99 596.592 189.742 595.776C189.598 595.68 189.49 595.644 189.418 595.668C189.298 595.788 188.986 596.064 188.482 596.496C187.858 597.024 187.534 597.3 187.51 597.324C187.438 597.372 187.27 597.396 187.006 597.396C186.718 597.396 186.538 597.372 186.466 597.324C186.346 597.252 186.274 597.084 186.25 596.82C186.226 596.484 186.214 595.248 186.214 593.112C186.214 590.496 186.238 589.152 186.286 589.08C186.31 589.032 186.358 588.972 186.43 588.9C186.55 588.828 186.898 588.792 187.474 588.792C188.098 588.792 188.458 588.816 188.554 588.864C188.722 588.96 188.806 589.212 188.806 589.62C188.878 590.916 189.334 591.984 190.174 592.824C190.798 593.448 191.662 593.94 192.766 594.3C194.182 594.756 195.598 594.912 197.014 594.768C197.206 594.744 197.374 594.72 197.518 594.696C198.19 594.552 198.742 594.264 199.174 593.832C199.654 593.352 199.966 592.704 200.11 591.888C200.302 590.664 199.966 589.62 199.102 588.756C198.742 588.348 198.274 588.06 197.698 587.892C197.602 587.844 196.642 587.616 194.818 587.208C193.09 586.872 192.106 586.656 191.866 586.56C190.09 586.056 188.698 585.108 187.69 583.716C186.658 582.348 186.166 580.812 186.214 579.108C186.286 577.404 186.79 575.94 187.726 574.716C188.614 573.516 189.91 572.688 191.614 572.232C192.19 572.088 192.73 571.992 193.234 571.944Z" fill="#FF5A30"/>
</g>
<defs>
<filter id="filter0_d_0_3" x="0" y="0.47226" width="879" height="879" filterUnits="userSpaceOnUse" color-interpolation-filters="sRGB">
<feFlood flood-opacity="0" result="BackgroundImageFix"/>
<feColorMatrix in="SourceAlpha" type="matrix" values="0 0 0 0 0 0 0 0 0 0 0 0 0 0 0 0 0 0 127 0" result="hardAlpha"/>
<feOffset/>
<feGaussianBlur stdDeviation="76"/>
<feComposite in2="hardAlpha" operator="out"/>
<feColorMatrix type="matrix" values="0 0 0 0 0 0 0 0 0 0.768627 0 0 0 0 0.941176 0 0 0 0.42 0"/>
<feBlend mode="normal" in2="BackgroundImageFix" result="effect1_dropShadow_0_3"/>
<feBlend mode="normal" in="SourceGraphic" in2="effect1_dropShadow_0_3" result="shape"/>
</filter>
<filter id="filter1_d_0_3" x="586.784" y="180.8" width="50.327" height="33.704" filterUnits="userSpaceOnUse" color-interpolation-filters="sRGB">
<feFlood flood-opacity="0" result="BackgroundImageFix"/>
<feColorMatrix in="SourceAlpha" type="matrix" values="0 0 0 0 0 0 0 0 0 0 0 0 0 0 0 0 0 0 127 0" result="hardAlpha"/>
<feOffset dy="4"/>
<feGaussianBlur stdDeviation="2"/>
<feComposite in2="hardAlpha" operator="out"/>
<feColorMatrix type="matrix" values="0 0 0 0 0 0 0 0 0 0 0 0 0 0 0 0 0 0 0.25 0"/>
<feBlend mode="normal" in2="BackgroundImageFix" result="effect1_dropShadow_0_3"/>
<feBlend mode="normal" in="SourceGraphic" in2="effect1_dropShadow_0_3" result="shape"/>
</filter>
<filter id="filter2_d_0_3" x="129.232" y="571.8" width="79.4142" height="33.668" filterUnits="userSpaceOnUse" color-interpolation-filters="sRGB">
<feFlood flood-opacity="0" result="BackgroundImageFix"/>
<feColorMatrix in="SourceAlpha" type="matrix" values="0 0 0 0 0 0 0 0 0 0 0 0 0 0 0 0 0 0 127 0" result="hardAlpha"/>
<feOffset dy="4"/>
<feGaussianBlur stdDeviation="2"/>
<feComposite in2="hardAlpha" operator="out"/>
<feColorMatrix type="matrix" values="0 0 0 0 0 0 0 0 0 0 0 0 0 0 0 0 0 0 0.25 0"/>
<feBlend mode="normal" in2="BackgroundImageFix" result="effect1_dropShadow_0_3"/>
<feBlend mode="normal" in="SourceGraphic" in2="effect1_dropShadow_0_3" result="shape"/>
</filter>
<linearGradient id="paint0_linear_0_3" x1="171" y1="184" x2="267.755" y2="267.157" gradientUnits="userSpaceOnUse">
<stop stop-color="#414141"/>
<stop offset="1" stop-color="#2D2D2D"/>
</linearGradient>
<linearGradient id="paint1_linear_0_3" x1="95" y1="350" x2="191.755" y2="433.157" gradientUnits="userSpaceOnUse">
<stop stop-color="#414141"/>
<stop offset="1" stop-color="#2D2D2D"/>
</linearGradient>
<linearGradient id="paint2_linear_0_3" x1="569" y1="152" x2="665.755" y2="235.157" gradientUnits="userSpaceOnUse">
<stop stop-color="#414141"/>
<stop offset="1" stop-color="#2D2D2D"/>
</linearGradient>
<linearGradient id="paint3_linear_0_3" x1="126" y1="538" x2="222.755" y2="621.157" gradientUnits="userSpaceOnUse">
<stop stop-color="#414141"/>
<stop offset="1" stop-color="#2D2D2D"/>
</linearGradient>
</defs>
</svg>
